<svg xmlns="http://www.w3.org/2000/svg" viewBox="0 0 150 150"><path d="M75.03 36.67c-21.2 0-38.3 17.1-38.3 38.3 0 21.2 17.1 38.3 38.3 38.3 21.2 0 38.3-17.1 38.3-38.3 0-21.2-17.1-38.3-38.3-38.3Zm0 63.2a24.95 24.95 0 0 1-24.9-24.9 24.92 24.92 0 0 1 24.9-24.9 24.92 24.92 0 0 1 24.9 24.9c0 13.73-11.2 24.9-24.9 24.9Zm48.8-64.77c0 4.97-4 8.93-8.93 8.93a8.93 8.93 0 1 1 8.93-8.93Zm25.37 9.07c-.57-11.97-3.3-22.57-12.07-31.3C128.4 4.13 117.8 1.4 105.83.8 93.5.1 56.53.1 44.2.8c-11.93.57-22.53 3.3-31.3 12.03C4.13 21.57 1.43 32.17.83 44.13c-.7 12.34-.7 49.3 0 61.64.57 11.96 3.3 22.56 12.07 31.3 8.77 8.73 19.33 11.46 31.3 12.06 12.33.7 49.3.7 61.63 0 11.97-.56 22.57-3.3 31.3-12.06 8.74-8.74 11.47-19.34 12.07-31.3.7-12.34.7-49.27 0-61.6ZM133.27 119a25.2 25.2 0 0 1-14.2 14.2c-9.84 3.9-33.17 3-44.04 3-10.86 0-34.23.87-44.03-3A25.2 25.2 0 0 1 16.8 119c-3.9-9.83-3-33.17-3-44.03 0-10.87-.87-34.24 3-44.04A25.2 25.2 0 0 1 31 16.73c9.83-3.9 33.17-3 44.03-3 10.87 0 34.24-.86 44.04 3a25.2 25.2 0 0 1 14.2 14.2c3.9 9.84 3 33.17 3 44.04 0 10.86.9 34.23-3 44.03Z" fill-rule="nonzero"/></svg>