<svg xmlns="http://www.w3.org/2000/svg" viewBox="0 0 130 106"><path d="M116.64 26.33c.08 1.16.08 2.31.08 3.47 0 35.22-26.8 75.8-75.8 75.8A75.3 75.3 0 0 1 0 93.64c2.14.25 4.2.33 6.43.33 12.46 0 23.93-4.2 33.08-11.38A26.69 26.69 0 0 1 14.6 64.11a28.18 28.18 0 0 0 12.04-.5A26.65 26.65 0 0 1 5.28 37.48v-.33a26.83 26.83 0 0 0 12.04 3.38A26.62 26.62 0 0 1 9.07 4.9a75.73 75.73 0 0 0 54.94 27.88 30.08 30.08 0 0 1-.66-6.1A26.63 26.63 0 0 1 89.99.01c7.67 0 14.6 3.22 19.47 8.41A52.46 52.46 0 0 0 126.37 2a26.57 26.57 0 0 1-11.71 14.68A53.41 53.41 0 0 0 130 12.56a57.27 57.27 0 0 1-13.36 13.77Z" fill-rule="evenodd" fill="#fff" /></svg>