<svg xmlns="http://www.w3.org/2000/svg" viewBox="0 0 58 56"><g fill="none" fill-rule="evenodd"><g fill="#FFF"><path d="M45.778 48.51V35.006c0-1.2-.944-2.173-2.108-2.173-1.164 0-2.108.973-2.108 2.173v13.506c0 1.65-1.298 2.99-2.9 2.99-1.6 0-2.9-1.34-2.9-2.99V8.21c0-4.052-3.185-7.337-7.115-7.337s-7.116 3.285-7.116 7.337c.023 1.184.96 2.131 2.11 2.131 1.148 0 2.085-.947 2.108-2.13 0-1.651 1.298-2.99 2.898-2.99 1.601 0 2.899 1.339 2.899 2.99V48.51c.003 4.051 3.187 7.334 7.116 7.34 3.929-.005 7.112-3.288 7.116-7.34Z"/><path d="M18.322 45.497c3.929-.004 7.112-3.327 7.117-7.428V13.99c-.023-1.199-.96-2.158-2.11-2.158-1.148 0-2.085.96-2.108 2.158v24.083c0 1.672-1.298 3.027-2.9 3.027-1.6 0-2.899-1.355-2.899-3.027V18.257c0-4.103-3.186-7.43-7.116-7.43-3.93 0-7.115 3.327-7.115 7.43 0 1.215.943 2.2 2.108 2.2 1.164 0 2.108-.985 2.108-2.2 0-1.672 1.298-3.027 2.9-3.027 1.6 0 2.899 1.355 2.899 3.027v19.812c.005 4.1 3.188 7.424 7.116 7.428Z"/><path d="M57.01 32.322a179.322 179.322 0 0 1-1.846-5.362c-1.362-3.744-5.376-5.72-8.965-4.413-2.792 1.016-4.486 3.722-4.486 6.632 0 .17.3 2.24 2.113 2.24s2.004-2.08 2.01-2.27c.037-1.141.725-2.185 1.825-2.585 1.462-.532 3.097.273 3.652 1.798.758 2.277 1.36 4.03 1.807 5.256.13.355 1.124 1.518 2.558 1.017 1.433-.502 1.433-2.036 1.332-2.313Z"/></g></g></svg>