<svg xmlns="http://www.w3.org/2000/svg" viewBox="0 0 152 56"><g fill="#09ca09" fill-rule="evenodd"><path d="M44.778 48.41V34.906c0-1.2-.944-2.173-2.108-2.173-1.164 0-2.108.973-2.108 2.173v13.506c0 1.65-1.298 2.99-2.9 2.99-1.6 0-2.9-1.34-2.9-2.99V8.11c0-4.052-3.185-7.337-7.115-7.337s-7.116 3.285-7.116 7.337c.023 1.184.96 2.131 2.11 2.131 1.148 0 2.085-.947 2.108-2.13 0-1.651 1.298-2.99 2.898-2.99 1.601 0 2.899 1.339 2.899 2.99V48.41c.003 4.051 3.187 7.334 7.116 7.34 3.929-.005 7.112-3.288 7.116-7.34Z"/><path d="M17.322 45.397c3.929-.004 7.112-3.327 7.117-7.428V13.89c-.023-1.199-.96-2.158-2.11-2.158-1.148 0-2.085.96-2.108 2.158v24.083c0 1.672-1.298 3.027-2.9 3.027-1.6 0-2.899-1.355-2.899-3.027V18.157c0-4.103-3.186-7.43-7.116-7.43-3.93 0-7.115 3.327-7.115 7.43 0 1.215.943 2.2 2.108 2.2 1.164 0 2.108-.985 2.108-2.2 0-1.672 1.298-3.027 2.9-3.027 1.6 0 2.899 1.355 2.899 3.027v19.812c.005 4.1 3.188 7.424 7.116 7.428Z"/><path d="M95.412 27.56c.554 0 1.013.181 1.376.544.362.363.544.832.544 1.408v13.536c0 .555-.182 1.019-.544 1.392-.363.373-.822.56-1.376.56-.555 0-1.008-.181-1.36-.544-.352-.363-.539-.821-.56-1.376-.534.619-1.254 1.147-2.16 1.584a6.511 6.511 0 0 1-2.864.656c-1.472 0-2.806-.379-4-1.136-1.195-.757-2.139-1.808-2.832-3.152-.694-1.344-1.04-2.87-1.04-4.576 0-1.707.341-3.237 1.024-4.592.682-1.355 1.616-2.41 2.8-3.168a7.127 7.127 0 0 1 3.92-1.136c1.024 0 1.984.187 2.88.56.896.373 1.653.848 2.272 1.424v-.032c0-.555.181-1.019.544-1.392.362-.373.821-.56 1.376-.56ZM88.948 41.8c1.386 0 2.517-.507 3.392-1.52.874-1.013 1.312-2.288 1.312-3.824s-.438-2.816-1.312-3.84c-.875-1.024-2.006-1.536-3.392-1.536-1.366 0-2.486.512-3.36 1.536-.875 1.024-1.312 2.304-1.312 3.84s.432 2.81 1.296 3.824c.864 1.013 1.99 1.52 3.376 1.52Zm25.9-13.888c.512 0 .938.165 1.28.496.34.33.512.741.512 1.232 0 .256-.086.576-.256.96L110.4 43.784a1.99 1.99 0 0 1-.656.864 1.78 1.78 0 0 1-.976.352l-.288.032c-.363 0-.7-.112-1.008-.336a2.202 2.202 0 0 1-.72-.912L100.8 30.6a2.537 2.537 0 0 1-.224-1.024c0-.427.18-.816.544-1.168.362-.352.81-.528 1.344-.528.405 0 .778.107 1.12.32.34.213.597.512.768.896l4.416 10.112 4.384-10.08c.17-.405.405-.715.704-.928.298-.213.629-.31.992-.288Zm20.62 8.128a1.643 1.643 0 0 1-.609 1.248c-.384.32-.832.48-1.344.48h-10.56c.256 1.259.843 2.245 1.76 2.96a4.92 4.92 0 0 0 3.104 1.072c.875 0 1.558-.08 2.048-.24.49-.16.88-.33 1.168-.512.288-.181.486-.304.592-.368.384-.192.747-.288 1.088-.288.448 0 .832.16 1.152.48.32.32.48.693.48 1.12 0 .576-.298 1.099-.896 1.568-.597.49-1.397.907-2.4 1.248a9.377 9.377 0 0 1-3.04.512c-1.792 0-3.354-.373-4.688-1.12a7.818 7.818 0 0 1-3.088-3.088c-.725-1.312-1.088-2.79-1.088-4.432 0-1.835.384-3.445 1.152-4.832.768-1.387 1.782-2.448 3.04-3.184a7.857 7.857 0 0 1 4.032-1.104c1.408 0 2.736.384 3.984 1.152a8.611 8.611 0 0 1 2.992 3.104 8.344 8.344 0 0 1 1.12 4.224Zm-8.097-4.96c-2.474 0-3.936 1.163-4.384 3.488h8.384v-.224c-.085-.896-.522-1.664-1.312-2.304a4.153 4.153 0 0 0-2.688-.96Zm10.892 11.264c-.192-.256-.288-.576-.288-.96 0-.555.277-1.024.832-1.408.299-.192.608-.288.928-.288.448 0 .875.203 1.28.608.64.661 1.307 1.152 2 1.472.693.32 1.53.48 2.512.48 1.664-.064 2.496-.693 2.496-1.888 0-.619-.283-1.088-.848-1.408-.565-.32-1.445-.64-2.64-.96-1.237-.341-2.245-.683-3.024-1.024a5.35 5.35 0 0 1-2.016-1.552c-.565-.693-.848-1.627-.848-2.8 0-1.024.293-1.915.88-2.672.587-.757 1.355-1.344 2.304-1.76a7.452 7.452 0 0 1 3.024-.624c1.088 0 2.176.203 3.264.608 1.088.405 1.941 1.003 2.56 1.792.277.341.416.725.416 1.152 0 .49-.203.896-.608 1.216-.299.235-.64.352-1.024.352-.47 0-.853-.15-1.152-.448a4.064 4.064 0 0 0-1.488-1.12c-.608-.277-1.296-.416-2.064-.416-1.621 0-2.432.587-2.432 1.76 0 .47.15.848.448 1.136.299.288.677.512 1.136.672.459.16 1.104.357 1.936.592 1.152.32 2.112.65 2.88.992a4.943 4.943 0 0 1 1.952 1.568c.533.704.8 1.632.8 2.784 0 1.045-.31 1.957-.928 2.736-.619.779-1.413 1.37-2.384 1.776a7.695 7.695 0 0 1-2.992.608c-1.408 0-2.72-.235-3.936-.704a6.54 6.54 0 0 1-2.976-2.272Z"/><path d="M56.01 32.222a179.322 179.322 0 0 1-1.846-5.362c-1.362-3.744-5.376-5.72-8.965-4.413-2.792 1.016-4.486 3.722-4.486 6.632 0 .17.3 2.24 2.113 2.24s2.004-2.08 2.01-2.27c.037-1.141.725-2.185 1.825-2.585 1.462-.532 3.097.273 3.652 1.798.758 2.277 1.36 4.03 1.807 5.256.13.355 1.124 1.518 2.558 1.017 1.433-.502 1.433-2.036 1.332-2.313Z"/><path d="M76.584 22.504c.512 0 .987.197 1.424.592.437.395.656.89.656 1.488 0 .192-.032.405-.096.64l-6.304 18.56c-.128.363-.352.65-.672.864-.32.213-.672.33-1.056.352-.384 0-.747-.107-1.088-.32a2.141 2.141 0 0 1-.8-.928l-4.544-10.336-4.576 10.336a2.141 2.141 0 0 1-.8.928c-.341.213-.704.32-1.088.32a2.079 2.079 0 0 1-1.056-.352 1.687 1.687 0 0 1-.672-.864c-.79-2.008-1.346-3.525-1.666-4.55-.48-1.539-.928-3.029.857-3.678 1.784-.65 2.537 1.069 3.02 2.313.029.076.07.192.125.347l4.16-9.984c.17-.384.416-.688.736-.912a1.69 1.69 0 0 1 1.088-.304c.405-.021.763.08 1.072.304.31.224.55.528.72.912l3.936 9.888 4.736-14.368c.128-.384.368-.688.72-.912a2.131 2.131 0 0 1 1.168-.336Z"/></g></svg>