<?xml version="1.0" standalone="no"?>
<!DOCTYPE svg PUBLIC "-//W3C//DTD SVG 20010904//EN"
 "http://www.w3.org/TR/2001/REC-SVG-20010904/DTD/svg10.dtd">
<svg version="1.0" xmlns="http://www.w3.org/2000/svg"
 width="928.000000pt" height="928.000000pt" viewBox="0 0 928.000000 928.000000"
 preserveAspectRatio="xMidYMid meet">
<metadata>
Created by potrace 1.14, written by Peter Selinger 2001-2017
</metadata>
<g transform="translate(0.000000,928.000000) scale(0.100000,-0.100000)"
fill="#000000" stroke="none">
<path d="M4469 8976 c-3 -3 -27 -7 -54 -10 -28 -3 -50 -5 -50 -6 0 -1 -11 -4
-25 -7 -39 -7 -55 -11 -55 -13 0 -1 -7 -3 -15 -5 -35 -7 -150 -55 -215 -89
-115 -61 -273 -193 -342 -285 -10 -13 -25 -31 -33 -41 -22 -25 -40 -53 -46
-72 -4 -10 -10 -18 -13 -18 -8 0 -101 -189 -105 -211 -1 -8 -5 -19 -8 -25 -4
-6 -12 -33 -18 -60 -7 -27 -14 -57 -16 -66 -12 -51 -15 -67 -20 -118 -13 -130
-11 -182 11 -245 47 -140 165 -233 300 -236 101 -3 175 24 241 87 41 39 90
104 79 104 -3 0 1 14 10 30 9 17 13 30 9 30 -4 0 -2 6 3 13 5 6 11 34 12 60 8
157 51 264 144 357 44 43 150 108 191 117 6 1 25 5 41 9 92 20 228 -2 313 -52
54 -31 175 -151 166 -165 -3 -5 -1 -9 4 -9 9 0 45 -85 59 -140 3 -14 7 -1503
9 -3310 1 -1807 4 -3314 8 -3350 6 -67 13 -118 21 -157 3 -13 6 -26 6 -30 4
-30 58 -165 99 -248 55 -110 107 -184 196 -278 76 -80 209 -187 233 -187 5 0
11 -4 13 -8 11 -26 241 -116 352 -138 130 -25 349 -22 447 6 16 5 33 9 37 10
21 2 91 24 122 37 82 34 190 89 190 96 0 4 7 7 15 7 8 0 15 5 15 10 0 6 7 10
15 10 8 0 15 4 15 8 0 4 13 15 29 25 27 16 168 151 202 194 106 132 203 334
233 483 3 14 7 34 9 45 3 11 8 49 13 85 11 93 12 2338 0 2375 -51 168 -174
271 -320 268 -84 -2 -106 -5 -112 -14 -3 -5 -10 -7 -15 -4 -5 4 -9 1 -9 -5 0
-6 -3 -9 -8 -6 -24 15 -171 -134 -172 -174 0 -9 -5 -21 -10 -26 -6 -6 -13 -28
-15 -50 -2 -21 -4 -545 -5 -1164 -1 -1222 1 -1170 -57 -1288 -49 -97 -177
-207 -267 -229 -188 -44 -331 -11 -452 104 -35 33 -100 118 -102 133 -1 3 -8
21 -16 40 -8 19 -18 58 -24 87 -5 31 -9 1334 -9 3325 0 1800 -4 3300 -7 3333
-4 33 -10 74 -13 90 -3 17 -7 39 -8 50 -4 31 -32 122 -61 192 -100 250 -304
477 -535 595 -121 62 -151 72 -289 104 -61 15 -331 30 -341 20z"/>
<path d="M1228 7385 c-1 -1 -25 -6 -53 -10 -168 -22 -335 -88 -485 -193 -64
-44 -260 -234 -260 -252 0 -5 -6 -15 -13 -22 -39 -41 -157 -269 -160 -310 -1
-10 -4 -18 -7 -18 -3 0 -7 -8 -8 -17 -2 -21 -10 -57 -12 -60 -3 -3 -4 -7 -13
-48 -16 -76 -20 -118 -21 -220 0 -60 3 -119 6 -131 28 -94 101 -185 178 -220
67 -30 89 -35 154 -33 86 3 150 27 210 80 77 68 113 147 121 267 6 93 12 123
32 175 54 135 160 241 283 283 71 23 75 24 141 25 76 1 124 -9 194 -41 54 -25
173 -114 174 -132 1 -4 14 -26 30 -50 31 -46 55 -109 66 -173 4 -22 8 -791 10
-1710 1 -918 5 -1692 9 -1719 3 -27 11 -67 17 -90 6 -22 12 -48 14 -56 9 -44
52 -156 91 -233 52 -105 108 -187 172 -253 6 -7 12 -18 12 -25 0 -7 2 -10 5
-7 3 3 27 -16 53 -41 26 -26 65 -60 87 -77 22 -16 46 -35 53 -42 7 -6 19 -12
27 -12 7 0 15 -4 17 -9 2 -5 44 -29 93 -54 90 -45 229 -91 315 -103 62 -10
275 -10 330 -2 69 11 115 21 140 31 36 13 116 37 124 36 5 0 12 3 15 8 3 4 33
21 66 38 64 31 158 93 163 107 2 4 8 8 13 8 9 0 30 17 104 86 40 37 156 184
173 220 8 19 19 34 24 34 4 0 8 4 8 9 0 5 15 42 34 83 44 96 67 158 60 158 -4
0 -1 7 6 15 7 8 10 15 6 15 -3 0 -1 11 4 25 10 26 14 44 27 125 5 25 8 961 8
2080 l0 2035 -26 55 c-88 186 -299 261 -466 164 -79 -46 -153 -145 -167 -224
-3 -14 -5 -25 -6 -25 -2 0 -3 -898 -5 -1995 -1 -1463 -5 -2002 -13 -2022 -6
-16 -9 -28 -6 -28 4 0 1 -7 -6 -15 -7 -8 -9 -15 -6 -15 16 0 -62 -126 -104
-169 -62 -62 -82 -77 -132 -99 -78 -35 -121 -45 -197 -45 -89 -1 -163 21 -236
68 -126 82 -194 185 -222 340 -3 16 -6 784 -7 1705 -2 921 -6 1691 -10 1710
-4 19 -9 46 -10 60 -2 14 -13 59 -25 100 -12 41 -23 82 -26 91 -2 9 -8 25 -13
35 -5 11 -26 53 -47 94 -56 115 -121 205 -216 299 -100 101 -121 117 -214 174
-71 43 -241 120 -262 118 -2 0 -24 6 -50 14 -26 8 -49 12 -51 10 -2 -2 -16 1
-31 7 -23 9 -274 21 -283 13z"/>
<path d="M7657 5574 c-1 -1 -23 -5 -48 -8 -25 -3 -79 -15 -120 -26 -41 -11
-82 -23 -93 -25 -10 -2 -24 -9 -32 -16 -8 -6 -14 -9 -14 -5 0 9 -178 -85 -206
-109 -7 -5 -29 -23 -50 -40 -41 -33 -113 -103 -159 -156 -33 -37 -135 -194
-140 -213 -1 -6 -13 -36 -27 -66 -39 -84 -84 -257 -87 -330 0 -8 -2 -47 -4
-85 -8 -167 102 -348 237 -387 51 -14 157 -17 174 -5 6 5 12 7 12 3 0 -4 19 3
42 15 50 26 138 114 138 139 0 6 4 18 9 28 8 14 18 39 26 62 8 25 15 64 19
113 5 47 14 91 31 147 15 48 69 127 119 173 93 87 246 129 376 104 42 -8 130
-41 130 -48 0 -5 6 -9 14 -9 18 0 146 -118 146 -135 0 -7 3 -15 8 -17 15 -7
54 -99 105 -253 123 -365 169 -502 182 -530 7 -16 21 -55 30 -85 10 -30 23
-66 30 -80 36 -70 156 -157 224 -162 18 -1 35 -6 37 -10 3 -4 10 -5 17 -3 7 2
33 6 59 9 105 11 207 86 251 184 32 71 42 171 22 219 -8 18 -11 33 -8 33 3 0
1 6 -4 13 -5 6 -20 41 -32 77 -12 36 -25 72 -28 80 -4 8 -7 18 -8 23 -2 4 -4
9 -5 12 -1 3 -3 8 -4 13 -1 6 -28 83 -43 122 -4 8 -7 17 -8 20 -5 22 -48 149
-55 165 -5 11 -27 79 -50 150 -23 72 -50 148 -59 170 -10 22 -26 59 -36 83
-11 23 -22 42 -27 42 -4 0 -8 8 -8 19 0 10 -7 24 -15 31 -8 7 -15 19 -15 26 0
8 -4 14 -8 14 -4 0 -16 15 -27 32 -22 37 -36 54 -125 146 -88 90 -185 161
-294 215 -82 41 -121 58 -136 61 -3 1 -11 5 -17 9 -7 5 -13 6 -13 3 0 -3 -18
1 -39 9 -22 7 -54 16 -73 19 -18 3 -44 8 -58 12 -24 5 -257 13 -263 8z"/>
</g>
</svg>
