<svg xmlns="http://www.w3.org/2000/svg" viewBox="0 0 30 30"><path fill-rule="evenodd" clip-rule="evenodd" d="M17.235 4.755c-.57-2.34-3.9-2.34-4.47 0a2.298 2.298 0 0 1-3.429 1.422C7.278 4.923 4.923 7.278 6.177 9.336a2.3 2.3 0 0 1-1.42 3.43c-2.342.569-2.342 3.9 0 4.467a2.298 2.298 0 0 1 1.42 3.431c-1.254 2.058 1.101 4.413 3.16 3.159a2.298 2.298 0 0 1 3.43 1.42c.568 2.342 3.9 2.342 4.467 0a2.3 2.3 0 0 1 3.43-1.42c2.058 1.254 4.413-1.101 3.16-3.159a2.3 2.3 0 0 1 1.42-3.43c2.341-.569 2.341-3.9 0-4.468a2.299 2.299 0 0 1-1.42-3.43c1.253-2.058-1.102-4.413-3.16-3.159a2.298 2.298 0 0 1-3.43-1.42l.001-.002ZM15 19.5a4.5 4.5 0 1 0 0-9 4.5 4.5 0 0 0 0 9Z" fill="#fff"/></svg>
