<svg fill="#fff" xmlns="http://www.w3.org/2000/svg" viewBox="0 0 31 30"><path fill-rule="evenodd" clip-rule="evenodd" d="M15.5 28.5C22.956 28.5 29 22.456 29 15S22.956 1.5 15.5 1.5 2 7.544 2 15s6.044 13.5 13.5 13.5Zm.477-17.32c2.728-1.325 4.092-1.987 4.81-1.496a1.5 1.5 0 0 1 .393.392c.49.719-.171 2.083-1.495 4.81-.708 1.46-1.063 2.189-1.674 2.384a1.5 1.5 0 0 1-.422.072 1.05 1.05 0 0 1-.254-.025c-.271.513-.994.863-2.312 1.504-2.728 1.324-4.092 1.986-4.81 1.495a1.5 1.5 0 0 1-.393-.392c-.49-.719.171-2.083 1.495-4.81.709-1.46 1.063-2.189 1.674-2.385a1.5 1.5 0 0 1 .422-.07c.085-.003.17.006.254.024.271-.513.994-.864 2.312-1.504Z"/></svg>