<svg fill="#fff" xmlns="http://www.w3.org/2000/svg" viewBox="0 0 31 30"><path d="M16.885 3.245a2.088 2.088 0 0 0-1.385-.518c-.515 0-1.01.186-1.385.518l-9.766 8.67a2.846 2.846 0 0 0-.7.942 2.694 2.694 0 0 0-.246 1.125V24.53c0 .753.32 1.475.887 2.008a3.126 3.126 0 0 0 2.137.831h3.025c.802 0 3.024-.021 3.024-.021v-7.555c0-.251.106-.492.295-.67.19-.177.445-.277.713-.277h4.032c.268 0 .524.1.713.278.189.177.295.418.295.67v7.554s2.222.021 3.024.021h3.025c.802 0 1.57-.3 2.138-.832a2.757 2.757 0 0 0 .886-2.009v-10.55c0-.386-.085-.768-.247-1.123a2.849 2.849 0 0 0-.7-.94L16.884 3.24v.004Z"/></svg>